{"title":"The Boss of the Underworld (2008) Hindi DvdRip Xvid@Mastitorrent","uid":6470846,"size":787419706,"categoryP":"video","categoryS":"movies","magnet":"?xt=urn:btih:8c52691d28a048dd189e87020a0b861694ccc1b4&amp;dn=The+Boss+of+the+Underworld+%282008%29+Hindi+DvdRip+Xvid%40Mastitorrent&amp;tr=udp%3A%2F%2Ftracker.openbittorrent.com%3A80&amp;tr=udp%3A%2F%2Fopen.demonii.com%3A1337&amp;tr=udp%3A%2F%2Ftracker.coppersurfer.tk%3A6969&amp;tr=udp%3A%2F%2Fexodus.desync.com%3A6969","seeders":1,"leechers":0,"uploader":"amanrulz","files":13,"time":1308136241,"description":"mastitorrents.com\n &lt;a href=&quot;\nhttp://mastitorrents.com/forums/index.php&quot; rel=&quot;nofollow&quot; target=&quot;_NEW&quot;&gt;\nhttp://mastitorrents.com/forums/index.php&lt;/a&gt;\n\nGeneral\nComplete name                    : The Boss of the Underworld (2008)-Xvid-DvdRip.avi\nFormat                           : AVI\nFormat/Info                      : Audio Video Interleave\nFile size                        : 743 MiB\nDuration                         : 2h 26mn\nOverall bit rate                 : 710 Kbps\n\nVideo\nID                               : 0\nFormat                           : MPEG-4 Visual\nFormat profile                   : Advanced Simple@L5\nFormat settings, BVOP            : Yes\nFormat settings, QPel            : No\nFormat settings, GMC             : No warppoints\nFormat settings, Matrix          : Default (H.263)\nCodec ID                         : XVID\nCodec ID/Hint                    : XviD\nDuration                         : 2h 26mn\nBit rate                         : 570 Kbps\nWidth                            : 560 pixels\nHeight                           : 304 pixels\nDisplay aspect ratio             : 16:9\nFrame rate                       : 25.000 fps\nColor space                      : YUV\nChroma subsampling               : 4:2:0\nBit depth                        : 8 bits\nScan type                        : Progressive\nCompression mode                 : Lossy\nBits/(Pixel*Frame)               : 0.134\nStream size                      : 596 MiB (80%)\nWriting library                  : XviD 1.2.1 (UTC 2008-12-04)\n\nAudio\nID                               : 1\nFormat                           : MPEG Audio\nFormat version                   : Version 1\nFormat profile                   : Layer 3\nCodec ID                         : 55\nCodec ID/Hint                    : MP3\nDuration                         : 2h 26mn\nBit rate mode                    : Constant\nBit rate                         : 128 Kbps\nChannel(s)                       : 2 channels\nSampling rate                    : 44.1 KHz\nCompression mode                 : Lossy\nStream size                      : 134 MiB (18%)\nAlignment                        : Split accross interleaves\nInterleave, duration             : 26 ms (0.65 video frame)\nWriting library                  : LAME\n\n","torrent":{"xt":"urn:btih:8c52691d28a048dd189e87020a0b861694ccc1b4","amp;dn":"The+Boss+of+the+Underworld+%282008%29+Hindi+DvdRip+Xvid%40Mastitorrent","amp;tr":["udp%3A%2F%2Ftracker.openbittorrent.com%3A80","udp%3A%2F%2Fopen.demonii.com%3A1337","udp%3A%2F%2Ftracker.coppersurfer.tk%3A6969","udp%3A%2F%2Fexodus.desync.com%3A6969"],"infoHash":"8c52691d28a048dd189e87020a0b861694ccc1b4","infoHashBuffer":{"type":"Buffer","data":[140,82,105,29,40,160,72,221,24,158,135,2,10,11,134,22,148,204,193,180]},"announce":[],"urlList":[]}}